# xmcd CD database file
#
# Track frame offsets:
#	187
#	22687
#	42375
#
# Disc length: 798 seconds
#
# Revision: 2
# Processed by: cddbd v1.5.1PL0 Copyright (c) Steve Scherf et al.
# Submitted via: CDex 1.51
#
DISCID=17031c03
DTITLE=sCRITTI pOLITTI - BOOM! THERE SHE WAS
DYEAR=1900
DGENRE=Reggae -> Dancehall
TTITLE0=Boom! There She WAS
TTITLE1=FIRST BOY IN THIS TOWN
TTITLE2=A WORLD COME BACK TO LIFE
EXTD=
EXTT0=
EXTT1=
EXTT2=
PLAYORDER=
